<svg width="201" height="64" viewBox="0 0 201 64" fill="none" xmlns="http://www.w3.org/2000/svg">
<path d="M0.0785522 63.6681H2.8848V56.9508L9.89011 56.791V54.5826L2.8848 54.4228V51.0301C2.8848 50.529 3.0254 50.1419 3.30718 49.8687C3.58838 49.5955 3.98033 49.4592 4.48247 49.4592H10.9168V47.1134C9.07578 46.9467 6.65746 46.8631 3.66069 46.8631C2.6719 46.8631 1.82773 47.1518 1.12817 47.7285C0.428043 48.3058 0.0785522 49.2387 0.0785522 50.529V63.6681ZM14.4077 63.8049C15.8682 63.8049 16.9327 63.4745 17.6024 62.8141C18.2716 62.1538 18.6061 61.1178 18.6061 59.7061V46.8631H15.7769V59.296C15.7769 60.0096 15.6094 60.5182 15.2748 60.8217C14.9402 61.1258 14.4461 61.277 13.7919 61.277C13.2444 61.277 12.5443 61.2163 11.6927 61.0949V63.3261C12.0576 63.463 12.4869 63.577 12.9816 63.6681C13.4757 63.7591 13.952 63.8049 14.4077 63.8049ZM26.7747 63.782C29.4822 63.7517 31.7944 63.6532 33.7111 63.4859V61.1401H27.3222C26.2272 61.1401 25.6792 60.5789 25.6792 59.4558V56.5631L32.6845 56.4044V54.1955L25.6792 54.0363V51.053C25.6792 50.5216 25.8238 50.123 26.113 49.8572C26.4017 49.5921 26.8126 49.4592 27.3451 49.4592H33.7111V47.1134C32.3723 47.0378 31.1855 46.9771 30.1514 46.9313C29.1172 46.8854 27.8846 46.8631 26.455 46.8631C25.4662 46.8631 24.6221 47.1518 23.9225 47.7285C23.2224 48.3058 22.8729 49.2387 22.8729 50.529V60.2301C22.8729 61.6567 23.2568 62.6057 24.0252 63.0759C24.7931 63.5466 25.7101 63.782 26.7747 63.782ZM38.0238 63.6681H40.83V57.1558C42.1075 57.1862 43.2105 57.201 44.139 57.201L47.0595 63.6681H49.9116L46.6715 56.791C47.5232 56.5029 48.2118 56.0167 48.7363 55.334C49.2609 54.6508 49.5231 53.5655 49.5231 52.0776C49.5231 50.1041 49.1053 48.7416 48.2686 47.9902C47.4319 47.2388 46.2985 46.8631 44.869 46.8631H38.0238V63.6681ZM40.83 54.9469V49.3905H44.3898C45.1198 49.3905 45.6862 49.5806 46.0896 49.9597C46.4925 50.3394 46.6939 51.045 46.6939 52.0776C46.6939 53.1554 46.4925 53.9034 46.0896 54.3203C45.6862 54.7384 45.1198 54.9469 44.3898 54.9469H40.83ZM53.95 63.6681H56.7798V51.6676L64.4462 63.6681H66.705V46.8631H63.8757V58.863L56.2088 46.8631H53.95V63.6681ZM75.6947 63.6681H79.2545L84.7304 46.8631H81.8099L77.4749 60.6396L73.1393 46.8631H70.2188L75.6947 63.6681ZM84.731 63.6681H87.629L88.9065 59.6832H94.9987L96.2992 63.6681H99.2426L93.7666 46.8631H90.2069L84.731 63.6681ZM89.5682 57.1558L91.9411 49.2765L94.3141 57.1558H89.5682ZM102.688 63.6681H105.495V57.1558C106.772 57.1862 107.875 57.201 108.803 57.201L111.724 63.6681H114.576L111.336 56.791C112.188 56.5029 112.876 56.0167 113.401 55.334C113.926 54.6508 114.189 53.5655 114.189 52.0776C114.189 50.1041 113.77 48.7416 112.933 47.9902C112.097 47.2388 110.963 46.8631 109.533 46.8631H102.688V63.6681ZM105.495 54.9469V49.3905H109.054C109.784 49.3905 110.351 49.5806 110.755 49.9597C111.157 50.3394 111.359 51.045 111.359 52.0776C111.359 53.1554 111.157 53.9034 110.755 54.3203C110.351 54.7384 109.784 54.9469 109.054 54.9469H105.495ZM135.751 63.6681L133.765 46.8631H131.027L126.966 60.3206L122.882 46.8631H120.143L118.204 63.6681H120.919L122.266 51.7134L125.62 63.6681H128.267L131.598 51.6452L133.012 63.6681H135.751ZM143.007 63.782C145.714 63.7517 148.027 63.6532 149.943 63.4859V61.1401H143.554C142.459 61.1401 141.911 60.5789 141.911 59.4558V56.5631L148.917 56.4044V54.1955L141.911 54.0363V51.053C141.911 50.5216 142.056 50.123 142.345 49.8572C142.634 49.5921 143.044 49.4592 143.577 49.4592H149.943V47.1134C148.604 47.0378 147.418 46.9771 146.384 46.9313C145.349 46.8854 144.117 46.8631 142.687 46.8631C141.698 46.8631 140.854 47.1518 140.154 47.7285C139.455 48.3058 139.105 49.2387 139.105 50.529V60.2301C139.105 61.6567 139.489 62.6057 140.257 63.0759C141.025 63.5466 141.942 63.782 143.007 63.782ZM160.234 63.6681H163.04V56.9508L170.045 56.791V54.5826L163.04 54.4228V51.0301C163.04 50.529 163.181 50.1419 163.462 49.8687C163.743 49.5955 164.135 49.4592 164.637 49.4592H171.072V47.1134C169.231 46.9467 166.812 46.8631 163.816 46.8631C162.827 46.8631 161.983 47.1518 161.283 47.7285C160.584 48.3058 160.234 49.2387 160.234 50.529V63.6681ZM177.985 63.6681H180.815V58.4077L185.995 46.8631H183.143L179.446 55.5391L175.749 46.8631H172.829L177.985 58.4077V63.6681ZM188.048 63.6681H190.877V51.6676L198.544 63.6681H200.803V46.8631H197.974V58.863L190.307 46.8631H188.048V63.6681Z" fill="#1A1F21"/>
<path d="M111.156 28.3828C109.63 28.3828 108.128 28.1417 106.691 27.6669C105.293 27.2042 104.534 25.6985 104.998 24.3028C105.461 22.9077 106.97 22.1518 108.369 22.6134C109.263 22.9095 110.201 23.0595 111.156 23.0595C116.034 23.0595 120.003 19.0987 120.003 14.2307C120.003 9.36264 116.034 5.40123 111.156 5.40123C106.277 5.40123 102.309 9.36264 102.309 14.2307C102.309 15.2002 102.465 16.1515 102.772 17.0581C103.243 18.4509 102.494 19.9612 101.098 20.4319C99.7053 20.9027 98.1891 20.1553 97.718 18.7625C97.2245 17.3055 96.9742 15.781 96.9742 14.2307C96.9742 6.42695 103.336 0.0784931 111.156 0.0784931C118.975 0.0784931 125.336 6.42695 125.336 14.2307C125.336 22.0344 118.975 28.3828 111.156 28.3828Z" fill="#E7401C"/>
<path d="M103.678 21.02C103.657 20.7685 103.62 20.52 103.586 20.2709C103.568 20.1397 103.559 20.0074 103.538 19.8768C103.414 19.1197 103.228 18.374 102.981 17.645C102.509 16.2522 100.994 15.5036 99.6002 15.9755C98.4031 16.3793 97.684 17.5482 97.8011 18.752C97.8034 18.7755 97.8034 18.7996 97.8068 18.823C97.8097 18.8471 97.8154 18.8712 97.8195 18.8952C97.8424 19.0464 97.8763 19.1982 97.9273 19.3482C98.2344 20.2565 98.3905 21.2084 98.3905 22.1762C98.3905 27.0448 94.4215 31.0057 89.543 31.0057C84.6645 31.0057 80.6961 27.0448 80.6961 22.1762C80.6961 17.3082 84.6645 13.3474 89.543 13.3474C90.5123 13.3474 91.4638 13.5026 92.3716 13.8079C93.7673 14.278 95.2806 13.5284 95.7512 12.1355C96.2218 10.7427 95.4712 9.23307 94.0755 8.76345C92.6173 8.27264 91.0925 8.02409 89.543 8.02409C81.7234 8.02409 75.362 14.3731 75.362 22.1762C75.362 29.9771 81.7194 36.3244 89.535 36.3284C89.5379 36.3284 89.5401 36.329 89.543 36.329C97.1182 36.329 103.325 30.3705 103.706 22.9036C103.718 22.6625 103.724 22.4202 103.724 22.1762C103.724 21.7891 103.709 21.4037 103.678 21.02Z" fill="#F9B223"/>
</svg>
