<?xml version="1.0" encoding="UTF-8" standalone="no"?>
<svg
   width="1496"
   height="375"
   viewBox="0 0 1496 375"
   version="1.1"
   id="svg6"
   sodipodi:docname="bk77v2.svg"
   inkscape:version="1.1.2 (0a00cf5339, 2022-02-04)"
   xmlns:inkscape="http://www.inkscape.org/namespaces/inkscape"
   xmlns:sodipodi="http://sodipodi.sourceforge.net/DTD/sodipodi-0.dtd"
   xmlns="http://www.w3.org/2000/svg"
   xmlns:svg="http://www.w3.org/2000/svg">
  <defs
     id="defs10" />
  <sodipodi:namedview
     id="namedview8"
     pagecolor="#ffffff"
     bordercolor="#666666"
     borderopacity="1.0"
     inkscape:pageshadow="2"
     inkscape:pageopacity="0.0"
     inkscape:pagecheckerboard="0"
     showgrid="false"
     inkscape:zoom="0.85316025"
     inkscape:cx="567.30256"
     inkscape:cy="260.20903"
     inkscape:window-width="1707"
     inkscape:window-height="1378"
     inkscape:window-x="1722"
     inkscape:window-y="29"
     inkscape:window-maximized="1"
     inkscape:current-layer="svg6" />
  <path
     d="M 110.827 94.750 C 144.557 94.896, 199.457 94.896, 232.827 94.750 C 266.197 94.604, 238.600 94.484, 171.500 94.484 C 104.400 94.484, 77.097 94.604, 110.827 94.750 M 323.750 94.749 C 338.737 94.905, 363.262 94.905, 378.250 94.749 C 393.237 94.594, 380.975 94.466, 351 94.466 C 321.025 94.466, 308.762 94.594, 323.750 94.749 M 411.287 94.740 C 414.469 94.939, 419.419 94.937, 422.287 94.736 C 425.154 94.535, 422.550 94.372, 416.500 94.374 C 410.450 94.376, 408.104 94.541, 411.287 94.740 M 514.250 94.747 C 520.712 94.921, 531.288 94.921, 537.750 94.747 C 544.212 94.573, 538.925 94.430, 526 94.430 C 513.075 94.430, 507.788 94.573, 514.250 94.747 M 567.750 94.740 C 571.188 94.936, 576.813 94.936, 580.250 94.740 C 583.688 94.545, 580.875 94.385, 574 94.385 C 567.125 94.385, 564.313 94.545, 567.750 94.740 M 617.280 94.736 C 619.909 94.943, 623.959 94.940, 626.280 94.731 C 628.601 94.521, 626.450 94.352, 621.500 94.355 C 616.550 94.358, 614.651 94.530, 617.280 94.736 M 202.861 238.750 C 244.453 239.017, 245.279 239.061, 248.361 241.189 L 251.500 243.355 249.076 240.678 L 246.651 238 203.576 238.239 L 160.500 238.478 202.861 238.750"
     stroke="none"
     fill="#c4c1c4"
     fill-rule="evenodd"
     id="path2"
     style="fill:#ffffff" />
  <path
     d="M 116.527 7.033 C 114.342 9.215, 112.204 11, 111.777 11 C 111.350 11, 111 11.583, 111 12.297 C 111 13.848, 108.669 17.006, 104.250 21.441 C 102.463 23.234, 100.990 25.107, 100.978 25.601 C 100.966 26.095, 98.707 28.744, 95.958 31.486 C 93.208 34.228, 90.441 37.642, 89.808 39.073 C 89.174 40.503, 87.721 42.101, 86.578 42.623 C 85.435 43.146, 84.613 44.119, 84.750 44.787 C 84.888 45.454, 84.355 46, 83.567 46 C 82.779 46, 81.877 46.813, 81.561 47.806 C 81.246 48.800, 78.516 52.165, 75.494 55.285 C 72.472 58.405, 70 61.339, 70 61.804 C 70 62.270, 68.889 63.695, 67.531 64.971 C 66.173 66.247, 65.342 67.745, 65.685 68.300 C 66.028 68.855, 65.831 69.013, 65.246 68.652 C 64.177 67.991, 59 73.334, 59 75.098 C 59 75.618, 56.746 78.320, 53.992 81.104 C 51.238 83.887, 49.239 86.578, 49.551 87.082 C 49.863 87.587, 49.529 88.004, 48.809 88.008 C 47.594 88.015, 44.605 92.938, 45.359 93.692 C 45.614 93.948, 250.056 94.122, 416.362 94.007 L 427.223 94 426.851 72.539 C 426.586 57.233, 426.123 50.723, 425.239 49.839 C 424.558 49.158, 423.986 47.677, 423.969 46.550 C 423.952 45.422, 421.982 40.574, 419.592 35.777 C 414.496 25.545, 405.320 15.587, 397.500 11.800 C 394.750 10.468, 391.600 8.898, 390.500 8.312 C 387.531 6.729, 381.652 5, 379.238 5 C 378.072 5, 376.840 4.550, 376.500 4 C 376.093 3.342, 332.275 3.011, 248.191 3.033 L 120.500 3.066 116.527 7.033 M 528 6.378 C 528 7.135, 527.325 8.315, 526.500 9 C 525.660 9.697, 525 11.877, 525 13.956 C 525 15.997, 524.688 17.978, 524.308 18.359 C 523.927 18.740, 523.464 20.052, 523.279 21.276 C 523.094 22.499, 522.505 23.650, 521.971 23.833 C 521.437 24.017, 521 25.704, 521 27.583 C 521 29.462, 520.523 31, 519.941 31 C 519.359 31, 519.157 31.445, 519.493 31.989 C 519.829 32.533, 519.356 34.554, 518.442 36.481 C 517.528 38.407, 517.070 40.739, 517.424 41.662 C 517.778 42.585, 517.509 43.686, 516.825 44.108 C 516.142 44.530, 515.460 45.916, 515.311 47.188 C 514.529 53.853, 512.635 61.892, 511.947 61.467 C 511.157 60.979, 510.661 62.843, 509.443 70.881 C 509.041 73.536, 508.477 74.772, 508.012 74.019 C 507.322 72.904, 505 83.085, 505 87.225 C 505 88.084, 504.325 89.045, 503.500 89.362 C 502.675 89.678, 502.001 90.964, 502.003 92.219 L 502.006 94.500 557.253 94.445 C 632.518 94.369, 630.069 94.450, 630.710 92 C 630.998 90.900, 631.631 90, 632.117 90 C 632.602 90, 632.911 89.662, 632.802 89.250 C 632.325 87.449, 634.294 78.364, 635.456 77 C 636.159 76.175, 636.752 74.825, 636.774 74 C 636.864 70.633, 638.854 62.707, 639.756 62.124 C 640.287 61.781, 641.052 59.250, 641.455 56.500 C 641.858 53.750, 642.648 50.940, 643.211 50.256 C 643.775 49.571, 644.023 47.900, 643.763 46.541 C 643.503 45.182, 643.699 43.934, 644.198 43.767 C 645.140 43.453, 647.085 36.992, 647.288 33.500 C 647.352 32.400, 647.989 30.905, 648.702 30.179 C 649.416 29.452, 650 27.539, 650 25.929 C 650 24.318, 650.502 23, 651.117 23 C 651.788 23, 652.029 21.933, 651.722 20.324 C 651.419 18.743, 651.781 17.076, 652.605 16.252 C 653.372 15.485, 654 13.854, 654 12.629 C 654 11.403, 654.525 9.875, 655.167 9.233 C 656.057 8.343, 655.939 7.914, 654.673 7.428 C 653.759 7.077, 653.260 6.388, 653.565 5.895 C 653.888 5.372, 627.923 5, 591.059 5 C 538.164 5, 528 5.222, 528 6.378 M 738.665 15.272 C 732.799 20.922, 728 26.097, 728 26.772 C 728 27.448, 727.448 27.887, 726.774 27.750 C 726.099 27.612, 725.393 28.512, 725.204 29.750 C 725.015 30.988, 724.217 32, 723.430 32 C 722.644 32, 722 32.433, 722 32.962 C 722 33.491, 719.975 36.007, 717.500 38.553 C 715.025 41.100, 713 43.592, 713 44.092 C 713 44.591, 712.593 45, 712.095 45 C 710.776 45, 682.453 73.181, 682.757 74.191 C 682.899 74.660, 681.999 75.454, 680.757 75.955 C 677.897 77.109, 662.687 92.685, 663.359 93.772 C 663.944 94.719, 801.033 95.243, 811.725 94.339 C 815.699 94.003, 818.710 93.340, 818.416 92.864 C 818.122 92.389, 818.584 92, 819.441 92 C 820.298 92, 821 91.582, 821 91.071 C 821 90.001, 821.727 89.266, 829.376 82.598 C 832.469 79.902, 835 77.090, 835 76.348 C 835 75.607, 835.350 75, 835.777 75 C 836.718 75, 846.177 65.933, 850.948 60.457 C 852.845 58.281, 854.757 56.612, 855.198 56.750 C 855.639 56.887, 856 56.354, 856 55.565 C 856 54.776, 857.794 52.863, 859.986 51.315 C 862.178 49.767, 864.263 47.617, 864.620 46.539 C 864.977 45.460, 873.748 36.202, 884.112 25.967 C 898.571 11.686, 902.682 7.082, 901.778 6.178 C 900.895 5.295, 881.669 5, 824.965 5 L 749.331 5 738.665 15.272 M 954.174 7.314 C 952.978 8.587, 952 10.093, 952 10.659 C 952 11.226, 951.100 12.505, 950 13.500 C 948.900 14.495, 948 15.915, 948 16.655 C 948 17.395, 947.601 18, 947.114 18 C 946.627 18, 945.480 19.575, 944.567 21.500 C 943.654 23.425, 942.451 25, 941.894 25 C 941.337 25, 941.129 25.399, 941.430 25.887 C 941.731 26.374, 941.308 27.329, 940.489 28.009 C 939.670 28.689, 939 29.861, 939 30.614 C 939 31.367, 938.100 32.545, 937 33.232 C 935.900 33.919, 935 35.287, 935 36.272 C 935 37.257, 934.325 38.322, 933.500 38.638 C 932.675 38.955, 932 40.055, 932 41.084 C 932 42.112, 930.875 43.691, 929.500 44.592 C 927.722 45.757, 926.996 47.135, 926.985 49.365 C 926.974 51.482, 926.693 52.063, 926.117 51.155 C 925.490 50.166, 925.087 50.519, 924.592 52.491 C 924.222 53.965, 923.479 55.695, 922.941 56.336 C 918.781 61.288, 918 62.533, 918 64.212 C 918 65.260, 917.567 65.851, 917.038 65.524 C 916.509 65.197, 915.150 66.745, 914.018 68.965 C 912.886 71.184, 912.294 73, 912.702 73 C 913.111 73, 912.496 73.665, 911.337 74.477 C 910.177 75.289, 908.944 77.089, 908.595 78.477 C 908.247 79.865, 907.295 81, 906.481 81 C 905.177 81, 904.591 82.120, 904.842 84.131 C 904.885 84.478, 904.038 85.560, 902.960 86.536 C 901.882 87.512, 901 89.103, 901 90.072 C 901 91.041, 900.470 92.010, 899.823 92.226 C 899.176 92.441, 898.951 93.112, 899.325 93.716 C 900.076 94.932, 1157.784 95.347, 1170.408 94.153 L 1177.317 93.500 1179.071 88.329 C 1180.035 85.485, 1180.598 82.931, 1180.321 82.654 C 1179.455 81.788, 1181.094 77.940, 1182.072 78.544 C 1182.582 78.860, 1183.056 77.741, 1183.125 76.059 C 1183.194 74.377, 1183.362 72.550, 1183.500 72 C 1183.638 71.450, 1183.806 70.132, 1183.875 69.071 C 1183.944 68.011, 1184.724 66.419, 1185.609 65.534 C 1186.571 64.572, 1187.029 62.933, 1186.748 61.462 C 1186.489 60.108, 1186.683 59, 1187.179 59 C 1187.675 59, 1187.970 57.118, 1187.834 54.819 C 1187.682 52.237, 1188.051 50.483, 1188.800 50.233 C 1189.467 50.011, 1189.758 49.418, 1189.447 48.915 C 1189.136 48.412, 1189.407 48, 1190.048 48 C 1190.689 48, 1190.960 47.339, 1190.651 46.532 C 1190.341 45.725, 1190.518 44.798, 1191.044 44.473 C 1191.570 44.148, 1192.007 42.671, 1192.015 41.191 C 1192.033 37.990, 1194.415 30.748, 1195.194 31.527 C 1195.676 32.009, 1196.318 28.192, 1197.378 18.550 C 1197.556 16.927, 1198.219 15.427, 1198.851 15.216 C 1199.483 15.006, 1200 13.783, 1200 12.500 C 1200 11.217, 1200.511 9.996, 1201.136 9.788 C 1201.944 9.519, 1201.875 8.773, 1200.896 7.205 L 1199.519 5 1077.934 5 L 956.349 5 954.174 7.314 M 1245.750 6.392 C 1244.787 7.123, 1244 8.252, 1244 8.902 C 1244 9.552, 1243.100 11.050, 1242 12.230 C 1240.900 13.411, 1240 15.144, 1240 16.082 C 1240 17.019, 1239.391 18.020, 1238.647 18.305 C 1237.902 18.591, 1236.307 20.716, 1235.102 23.028 C 1233.897 25.340, 1232.256 27.886, 1231.456 28.687 C 1230.655 29.488, 1230 30.755, 1230 31.504 C 1230 32.253, 1229.100 33.151, 1228 33.500 C 1226.900 33.849, 1226 34.736, 1226 35.471 C 1226 37.198, 1219.136 49.395, 1217.917 49.835 C 1217.406 50.020, 1217.232 50.566, 1217.530 51.049 C 1217.829 51.532, 1217.241 52.759, 1216.224 53.776 C 1215.207 54.793, 1214.553 56.159, 1214.771 56.813 C 1214.989 57.466, 1214.679 58, 1214.083 58 C 1212.483 58, 1209 61.768, 1209 63.500 C 1209 64.325, 1208.550 65, 1208 65 C 1207.450 65, 1207 65.900, 1207 67 C 1207 68.100, 1206.527 69, 1205.949 69 C 1205.371 69, 1204.240 70.575, 1203.436 72.500 C 1202.631 74.425, 1201.529 76, 1200.987 76 C 1200.444 76, 1200 76.620, 1200 77.378 C 1200 78.135, 1199.317 79.322, 1198.482 80.015 C 1196.381 81.758, 1193.686 87.684, 1194.440 88.902 C 1194.780 89.454, 1193.808 90.567, 1192.280 91.375 C 1189.662 92.760, 1189.616 92.894, 1191.500 93.673 C 1192.600 94.128, 1254.743 94.500, 1329.596 94.500 C 1440.198 94.500, 1465.987 94.255, 1467.268 93.192 C 1468.134 92.473, 1469.179 89.998, 1469.589 87.692 C 1470.263 83.898, 1470.404 83.737, 1471.067 86 C 1471.696 88.143, 1471.826 87.929, 1471.977 84.500 C 1472.299 77.176, 1473.713 71.704, 1475.066 72.541 C 1475.671 72.915, 1476.038 71.833, 1475.985 69.832 C 1475.937 67.999, 1476.332 64.700, 1476.863 62.500 C 1477.394 60.300, 1478.067 57.486, 1478.358 56.246 C 1478.649 55.007, 1479.171 53.532, 1479.520 52.968 C 1479.868 52.405, 1480.332 50.528, 1480.551 48.797 C 1480.770 47.067, 1481.411 45.189, 1481.975 44.625 C 1482.539 44.061, 1483 42.367, 1483 40.859 C 1483 39.351, 1483.481 37.821, 1484.068 37.458 C 1484.656 37.095, 1484.873 36.111, 1484.551 35.272 C 1484.229 34.433, 1484.536 33.066, 1485.233 32.234 C 1485.930 31.402, 1486.957 27.297, 1487.516 23.111 C 1488.075 18.925, 1488.993 15.581, 1489.555 15.680 C 1490.118 15.778, 1491.040 13.866, 1491.606 11.430 C 1492.439 7.839, 1492.373 7, 1491.258 7 C 1490.501 7, 1490.160 6.550, 1490.500 6 C 1490.911 5.335, 1450.268 5.011, 1369.309 5.032 C 1269.608 5.058, 1247.182 5.305, 1245.750 6.392 M 493.262 127.830 C 492.317 128.420, 490 136.850, 490 139.696 C 490 139.928, 489.601 139.872, 489.114 139.570 C 488.626 139.269, 487.910 141.605, 487.522 144.761 C 487.134 147.918, 486.128 151.271, 485.287 152.213 C 484.446 153.155, 484.023 154.617, 484.347 155.463 C 484.672 156.308, 484.563 157, 484.106 157 C 483.649 157, 482.980 159.516, 482.618 162.591 C 482.257 165.666, 481.267 168.876, 480.419 169.724 C 479.571 170.572, 479.001 172.444, 479.152 173.883 C 479.303 175.323, 479.168 176.951, 478.851 177.501 C 478.535 178.050, 477.981 179.738, 477.619 181.250 C 477.258 182.762, 476.520 184, 475.981 184 C 475.441 184, 475 185.773, 475 187.941 C 475 190.109, 474.543 192.165, 473.984 192.510 C 473.425 192.856, 473.239 193.577, 473.570 194.113 C 473.901 194.649, 473.418 196.239, 472.496 197.646 C 471.574 199.053, 471.039 201.042, 471.307 202.065 C 471.575 203.089, 471.214 204.408, 470.505 204.995 C 469.797 205.583, 468.918 208.187, 468.552 210.782 C 467.607 217.481, 467.007 219.123, 465.783 218.366 C 465.081 217.932, 464.885 218.618, 465.216 220.351 C 465.495 221.808, 465.335 223, 464.861 223 C 464.388 223, 464 224.768, 464 226.929 C 464 229.089, 463.356 231.501, 462.570 232.288 C 461.205 233.652, 458.626 244.559, 458.795 248.250 C 458.840 249.213, 458.288 250, 457.569 250 C 456.264 250, 455.032 254.950, 455.011 260.281 C 455.005 261.811, 454.373 263.303, 453.607 263.597 C 452.770 263.918, 451.939 266.402, 451.526 269.816 C 451.148 272.942, 450.200 276.497, 449.419 277.715 C 447.719 280.368, 447.602 281.364, 449.100 280.438 C 449.873 279.961, 449.862 280.389, 449.065 281.879 C 448.440 283.046, 447.495 284, 446.965 284 C 446.434 284, 446 285.376, 446 287.057 C 446 291.480, 443.921 299.069, 442.884 298.429 C 442.398 298.128, 442 298.786, 442 299.892 C 442 303.448, 439.856 312.029, 439.086 311.553 C 438.347 311.097, 435.819 323.486, 435.793 327.685 C 435.786 328.887, 435.155 330.110, 434.390 330.404 C 433.626 330.697, 433 332.050, 433 333.410 C 433 334.769, 432.548 336.161, 431.996 336.502 C 431.444 336.843, 431.267 338.216, 431.602 339.552 C 432.031 341.261, 431.736 342.164, 430.606 342.598 C 429.576 342.993, 429 344.409, 429 346.548 C 429 348.382, 428.543 350.165, 427.984 350.510 C 427.425 350.856, 427.239 351.577, 427.570 352.113 C 427.901 352.649, 427.424 354.230, 426.510 355.625 C 425.596 357.020, 425.118 358.865, 425.448 359.725 C 425.778 360.586, 425.308 362.107, 424.403 363.107 C 423.498 364.107, 423.002 365.562, 423.301 366.341 C 423.599 367.119, 423.358 368.242, 422.764 368.836 C 421.992 369.608, 422.049 370.354, 422.965 371.458 C 424.094 372.818, 431.739 373, 487.681 373 C 529.718 373, 550.910 372.663, 550.500 372 C 550.160 371.450, 550.860 371, 552.054 371 C 553.900 371, 554.161 370.548, 553.787 368 C 553.545 366.350, 553.793 365, 554.340 365 C 554.886 365, 555.037 364.704, 554.675 364.342 C 554.313 363.980, 554.519 363.080, 555.131 362.342 C 555.744 361.604, 555.913 361, 555.507 361 C 555.102 361, 555.497 359.891, 556.385 358.535 C 557.273 357.180, 558 354.923, 558 353.522 C 558 352.120, 558.397 350.191, 558.883 349.236 C 560.996 345.084, 561.902 342.201, 562.489 337.773 C 562.834 335.174, 563.540 332.785, 564.058 332.464 C 564.576 332.144, 565 330.146, 565 328.024 C 565 325.903, 565.437 324.017, 565.971 323.833 C 566.505 323.650, 567.094 322.499, 567.279 321.276 C 567.464 320.052, 567.927 318.740, 568.308 318.359 C 568.688 317.978, 569 316.376, 569 314.798 C 569 313.220, 569.788 310.725, 570.750 309.253 C 571.712 307.782, 571.938 306.924, 571.250 307.348 C 570.563 307.771, 570 307.664, 570 307.109 C 570 306.554, 570.622 305.740, 571.382 305.300 C 572.143 304.860, 573.002 302.700, 573.292 300.500 C 574.225 293.420, 574.478 292.514, 575.750 291.700 C 576.438 291.260, 577 289.123, 577 286.950 C 577 284.778, 577.450 283, 578 283 C 578.550 283, 579 281.902, 579 280.559 C 579 279.216, 579.450 277.840, 580 277.500 C 580.550 277.160, 581 275.334, 581 273.441 C 581 271.548, 581.502 270, 582.117 270 C 582.768 270, 583.034 268.960, 582.756 267.506 C 582.485 266.088, 582.866 264.526, 583.640 263.884 C 584.388 263.263, 585 261.235, 585 259.378 C 585 257.520, 585.337 256, 585.750 256 C 586.163 256, 586.570 254.988, 586.655 253.750 C 586.931 249.764, 589.136 242, 589.993 242 C 590.450 242, 591.140 240.088, 591.525 237.750 C 591.911 235.412, 592.587 233.050, 593.028 232.500 C 593.469 231.950, 593.868 231.050, 593.915 230.500 C 593.962 229.950, 594.563 229.500, 595.250 229.500 C 595.938 229.500, 596.539 229.950, 596.586 230.500 C 596.757 232.477, 598.375 235.516, 599.675 236.300 C 600.404 236.740, 601 237.942, 601 238.973 C 601 240.003, 602.063 242.119, 603.363 243.673 C 604.663 245.228, 606.068 247.625, 606.486 249 C 606.903 250.375, 607.732 252.108, 608.329 252.851 C 608.925 253.594, 609.520 254.936, 609.652 255.833 C 609.783 256.730, 610.368 257.623, 610.952 257.817 C 611.535 258.012, 611.758 258.582, 611.447 259.085 C 611.136 259.588, 611.359 260, 611.941 260 C 612.523 260, 613.016 260.788, 613.036 261.750 C 613.056 262.712, 614.125 264.788, 615.413 266.362 C 616.769 268.020, 617.546 270.019, 617.260 271.112 C 616.939 272.343, 617.289 273, 618.267 273 C 619.686 273, 620.888 275.374, 621.423 279.235 C 621.555 280.190, 622.354 281.765, 623.197 282.735 C 624.041 283.706, 625.030 285.756, 625.395 287.291 C 625.760 288.826, 626.443 289.844, 626.914 289.553 C 627.384 289.263, 628.282 291.064, 628.910 293.556 C 629.551 296.103, 630.488 297.816, 631.050 297.469 C 631.600 297.129, 631.985 297.222, 631.906 297.676 C 631.502 300.005, 632.238 301.964, 634.505 304.594 C 635.883 306.193, 636.797 308.063, 636.537 308.750 C 636.276 309.438, 636.450 310, 636.923 310 C 637.396 310, 638.066 311.125, 638.411 312.500 C 638.756 313.875, 639.506 315, 640.078 315 C 640.650 315, 640.798 315.518, 640.406 316.152 C 640.015 316.785, 640.341 317.798, 641.130 318.402 C 641.920 319.006, 643.181 321.398, 643.932 323.717 C 644.683 326.036, 645.632 327.728, 646.039 327.476 C 646.447 327.224, 647.065 328.531, 647.412 330.380 C 647.759 332.230, 648.933 334.770, 650.021 336.024 C 651.110 337.279, 652 339.105, 652 340.082 C 652 341.058, 652.716 342.573, 653.591 343.449 C 654.973 344.830, 655.626 346.442, 655.923 349.211 C 655.966 349.602, 656.948 350.805, 658.106 351.884 C 659.265 352.964, 659.911 354.334, 659.543 354.930 C 659.175 355.526, 659.526 356.265, 660.324 356.571 C 661.123 356.877, 662.055 358.524, 662.396 360.230 C 662.737 361.937, 664.161 364.833, 665.559 366.666 C 666.958 368.500, 667.799 370, 667.428 370 C 667.058 370, 667.315 370.675, 668 371.500 C 669.084 372.806, 677.800 372.998, 735.372 372.985 C 778.435 372.975, 800.977 372.631, 800 372 C 798.777 371.209, 798.898 371.028, 800.656 371.015 C 802.306 371.004, 802.692 370.537, 802.298 369.033 C 802.015 367.951, 801.157 366.546, 800.392 365.910 C 799.626 365.275, 799 363.948, 799 362.961 C 799 361.974, 798.663 361.017, 798.250 360.833 C 797.837 360.650, 796.201 357.800, 794.613 354.500 C 793.025 351.200, 791.344 347.825, 790.877 347 C 789.136 343.921, 785.932 337.865, 783.868 333.750 C 782.696 331.413, 781.382 329.271, 780.948 328.991 C 780.515 328.710, 780.012 327.834, 779.830 327.042 C 779.546 325.805, 772.529 311.530, 769.241 305.500 C 768.641 304.400, 765.994 299, 763.358 293.500 C 760.722 288, 758.213 283.350, 757.783 283.167 C 757.352 282.983, 757 282.032, 757 281.052 C 757 280.072, 756.162 278.197, 755.138 276.885 C 754.113 275.573, 752.958 273.488, 752.570 272.250 C 752.182 271.012, 751.434 270, 750.908 270 C 750.132 270, 747.985 266.139, 747.571 264 C 747.518 263.725, 744.809 258.325, 741.552 252 C 738.295 245.675, 734.945 239.037, 734.107 237.250 C 733.269 235.463, 732.227 234, 731.792 234 C 731.356 234, 731 233.579, 731 233.065 C 731 232.551, 730.477 230.863, 729.839 229.315 C 729.200 227.767, 728.750 226.162, 728.839 225.750 C 728.927 225.338, 728.594 225, 728.098 225 C 727.264 225, 724.836 219.444, 725.296 218.589 C 725.408 218.380, 724.820 217.375, 723.989 216.355 C 721.581 213.399, 719 208.334, 719 206.564 C 719 205.669, 718.438 204.721, 717.750 204.458 C 717.063 204.194, 716.537 202.727, 716.583 201.198 C 716.650 198.926, 722.554 192.537, 748.915 166.209 C 766.652 148.494, 781.505 134, 781.922 134 C 782.338 134, 783.188 132.884, 783.809 131.519 C 784.768 129.416, 784.651 128.884, 783.044 128.023 C 780.783 126.814, 495.195 126.623, 493.262 127.830 M 1046.946 128.748 C 1041.101 132.758, 1029.448 144.338, 1027.686 147.889 C 1027.034 149.203, 1026.068 150.182, 1025.539 150.065 C 1025.011 149.948, 1024.290 150.673, 1023.938 151.676 C 1023.586 152.679, 1022.876 153.500, 1022.360 153.500 C 1020.919 153.500, 1015 159.890, 1015 161.446 C 1015 162.203, 1013.553 164.040, 1011.784 165.529 C 1008.850 167.997, 1007.352 169.956, 1005.366 173.924 C 1004.974 174.707, 1003.831 176.169, 1002.826 177.174 C 1001.822 178.178, 1001 179.675, 1001 180.500 C 1001 181.325, 1000.315 182, 999.479 182 C 998.642 182, 997.404 183.231, 996.729 184.736 C 996.053 186.241, 994.712 188.266, 993.750 189.236 C 992.788 190.206, 992 191.627, 992 192.393 C 992 193.159, 991.325 194.045, 990.500 194.362 C 989.675 194.678, 989 195.571, 989 196.346 C 989 197.121, 988.369 198.279, 987.597 198.920 C 986.825 199.560, 984.992 202.540, 983.523 205.542 C 982.055 208.544, 980.436 211, 979.926 211 C 979.417 211, 979 211.655, 979 212.455 C 979 213.255, 977.866 215.043, 976.480 216.429 C 975.094 217.815, 973.688 220.310, 973.355 221.974 C 973.022 223.638, 972.453 225, 972.091 225 C 971.019 225, 967.995 230.661, 968.693 231.360 C 969.045 231.712, 968.903 232, 968.378 232 C 967.473 232, 964.757 236.921, 960.099 247 C 958.955 249.475, 957.118 252.850, 956.016 254.500 C 954.915 256.150, 954.010 258.350, 954.007 259.390 C 954.003 260.429, 953.212 261.855, 952.250 262.559 C 950.545 263.806, 950.386 264.189, 950.125 267.667 C 950.056 268.583, 949.696 269.029, 949.324 268.658 C 948.595 267.928, 946.136 273.778, 945.292 278.250 C 945.007 279.762, 944.354 281, 943.843 281 C 943.331 281, 943.041 281.563, 943.198 282.250 C 943.355 282.938, 941.932 286.619, 940.036 290.431 C 937.830 294.865, 937 297.500, 937.731 297.744 C 938.453 297.984, 938.160 298.840, 936.938 300.063 C 935.872 301.128, 935 302.675, 935 303.500 C 935 304.325, 934.564 305, 934.031 305 C 933.499 305, 933.330 305.697, 933.657 306.548 C 933.996 307.432, 933.487 308.655, 932.470 309.399 C 931.304 310.251, 930.884 311.450, 931.255 312.868 C 931.569 314.069, 931.225 315.632, 930.483 316.374 C 929.747 317.110, 928.848 319.465, 928.485 321.606 C 927.491 327.472, 926.935 329.078, 926.079 328.549 C 925.652 328.285, 924.709 330.641, 923.984 333.785 C 923.258 336.928, 922.253 340.041, 921.750 340.702 C 921.246 341.363, 921.127 342.826, 921.485 343.952 C 921.888 345.222, 921.689 346, 920.960 346 C 920.301 346, 920.052 346.693, 920.393 347.581 C 920.727 348.451, 920.325 350.126, 919.500 351.304 C 918.675 352.481, 918 354.668, 918 356.163 C 918 357.659, 917.600 359.129, 917.110 359.432 C 916.621 359.734, 915.948 361.673, 915.613 363.741 C 915.279 365.808, 914.769 368.962, 914.479 370.750 L 913.953 374 974.807 374 L 1035.662 374 1037.081 371.348 C 1037.861 369.890, 1038.354 367.837, 1038.176 366.785 C 1037.998 365.734, 1038.585 363.756, 1039.479 362.391 C 1040.393 360.997, 1040.835 359.056, 1040.488 357.963 C 1040.149 356.893, 1040.225 355.451, 1040.657 354.759 C 1041.090 354.067, 1041.528 352.942, 1041.632 352.260 C 1041.735 351.578, 1042.761 348.109, 1043.910 344.551 C 1045.060 340.993, 1046 337.190, 1046 336.100 C 1046 335.010, 1046.391 333.876, 1046.869 333.581 C 1047.346 333.286, 1048.017 331.347, 1048.359 329.272 C 1048.701 327.197, 1049.644 324.243, 1050.453 322.708 C 1051.263 321.172, 1052.230 318.289, 1052.603 316.301 C 1052.976 314.313, 1053.890 311.519, 1054.635 310.093 C 1055.379 308.667, 1055.993 306.825, 1056 306 C 1056.007 305.175, 1056.907 303.150, 1058 301.500 C 1059.093 299.850, 1059.990 297.726, 1059.993 296.780 C 1059.997 295.835, 1060.900 293.458, 1062 291.500 C 1063.100 289.542, 1064 287.085, 1064 286.041 C 1064 284.997, 1064.588 283.548, 1065.306 282.821 C 1066.421 281.693, 1068.033 278.707, 1068.449 277 C 1068.516 276.725, 1069.064 275.600, 1069.667 274.500 C 1070.270 273.400, 1071.071 271.069, 1071.446 269.319 C 1071.821 267.570, 1072.775 265.602, 1073.564 264.947 C 1074.354 264.291, 1075.002 263.248, 1075.004 262.628 C 1075.008 261.577, 1077.757 255.810, 1081.024 250 C 1081.797 248.625, 1082.445 247.238, 1082.465 246.917 C 1082.500 246.328, 1086.644 238.938, 1090.726 232.184 C 1091.951 230.158, 1093.366 227.582, 1093.872 226.459 C 1094.378 225.336, 1095.514 223.819, 1096.396 223.086 C 1097.278 222.354, 1098 221.121, 1098 220.346 C 1098 219.571, 1098.675 218.678, 1099.500 218.362 C 1100.325 218.045, 1101 217.182, 1101 216.445 C 1101 215.707, 1102.125 213.889, 1103.500 212.405 C 1104.875 210.922, 1106 209.292, 1106 208.783 C 1106 208.274, 1106.563 207.250, 1107.250 206.507 C 1107.938 205.764, 1110.300 202.156, 1112.500 198.489 C 1114.700 194.822, 1117.979 190.174, 1119.786 188.161 C 1121.594 186.147, 1123.938 182.866, 1124.995 180.870 C 1126.053 178.873, 1128.537 175.723, 1130.515 173.870 C 1132.492 172.016, 1135.375 168.602, 1136.921 166.282 C 1138.466 163.962, 1140.016 162.350, 1140.365 162.699 C 1140.714 163.048, 1141 162.133, 1141 160.667 C 1141 159.200, 1141.377 158, 1141.837 158 C 1143.117 158, 1151.056 150.178, 1150.760 149.209 C 1150.617 148.741, 1154.750 144.177, 1159.945 139.068 L 1169.390 129.779 1166.945 128.442 C 1164.988 127.372, 1153.030 127.094, 1107 127.051 C 1053.803 127.001, 1049.309 127.128, 1046.946 128.748 M 1336.653 130.548 C 1334.644 132.500, 1333 134.494, 1333 134.981 C 1333 135.467, 1331.989 136.186, 1330.754 136.578 C 1329.518 136.970, 1327.958 138.013, 1327.286 138.896 C 1326.614 139.778, 1326.049 140.093, 1326.032 139.595 C 1325.989 138.363, 1322 142.049, 1322 143.321 C 1322 144.510, 1320.497 146.202, 1312.750 153.734 C 1309.588 156.809, 1307 159.848, 1307 160.487 C 1307 161.126, 1305.208 163.415, 1303.017 165.574 C 1300.826 167.733, 1299.026 169.814, 1299.017 170.198 C 1299.008 170.583, 1297.883 172.102, 1296.519 173.574 C 1295.154 175.047, 1294.258 176.609, 1294.528 177.045 C 1294.798 177.482, 1294.361 178.496, 1293.557 179.300 C 1292.753 180.104, 1292.411 181.078, 1292.798 181.464 C 1293.184 181.851, 1293.050 182.058, 1292.500 181.925 C 1291.086 181.582, 1288 183.049, 1288 184.063 C 1288 185.114, 1283.591 191.937, 1281.525 194.084 C 1280.686 194.955, 1280 196.418, 1280 197.334 C 1280 198.250, 1279.552 199, 1279.005 199 C 1278.458 199, 1277.039 201.065, 1275.853 203.590 C 1274.666 206.114, 1273.117 208.402, 1272.411 208.673 C 1271.704 208.944, 1271.362 209.780, 1271.650 210.531 C 1271.938 211.282, 1271.235 212.905, 1270.087 214.137 C 1268.939 215.369, 1268 216.945, 1268 217.639 C 1268 218.333, 1267.338 219.271, 1266.528 219.724 C 1265.719 220.177, 1264.907 221.530, 1264.724 222.729 C 1264.540 223.929, 1263.628 225.754, 1262.695 226.784 C 1261.763 227.815, 1261 229.301, 1261 230.088 C 1261 230.875, 1260.100 232.081, 1259 232.768 C 1257.900 233.455, 1257 234.913, 1257 236.008 C 1257 237.104, 1256.213 238.807, 1255.250 239.793 C 1254.287 240.779, 1253.352 242.421, 1253.172 243.442 C 1252.991 244.464, 1252.204 245.939, 1251.422 246.721 C 1250.640 247.503, 1250 248.677, 1250 249.329 C 1250 249.982, 1248.938 252.537, 1247.640 255.008 C 1246.342 257.479, 1245.466 260.024, 1245.695 260.665 C 1245.923 261.306, 1245.185 262.124, 1244.055 262.483 C 1242.925 262.841, 1242 263.967, 1242 264.984 C 1242 266.001, 1241.438 267.060, 1240.750 267.338 C 1239.750 267.741, 1239.750 267.858, 1240.750 267.921 C 1242.664 268.042, 1242.235 269.790, 1240.128 270.459 C 1238.832 270.871, 1238.083 272.342, 1237.694 275.242 C 1237.385 277.545, 1236.428 279.945, 1235.566 280.575 C 1234.663 281.235, 1234 283.196, 1234 285.205 C 1234 287.420, 1233.271 289.350, 1232 290.500 C 1230.900 291.495, 1230 293.140, 1230 294.155 C 1230 295.170, 1229.438 296.007, 1228.750 296.015 C 1227.859 296.026, 1227.902 296.285, 1228.900 296.917 C 1230.055 297.648, 1229.924 298.281, 1228.150 300.537 C 1226.967 302.040, 1226 304.543, 1226 306.100 C 1226 307.949, 1225.274 309.318, 1223.906 310.050 C 1222.528 310.788, 1221.983 311.826, 1222.312 313.085 C 1222.587 314.137, 1222.374 315.269, 1221.838 315.600 C 1221.302 315.931, 1221.093 316.799, 1221.372 317.528 C 1221.652 318.257, 1221.282 319.351, 1220.549 319.959 C 1219.817 320.567, 1218.917 323.070, 1218.549 325.520 C 1218.182 327.971, 1217.233 330.624, 1216.441 331.417 C 1215.648 332.209, 1215 334.239, 1215 335.929 C 1215 337.618, 1214.550 339, 1214 339 C 1213.450 339, 1213 340.548, 1213 342.441 C 1213 344.334, 1212.550 346.160, 1212 346.500 C 1211.450 346.840, 1211 348.918, 1211 351.118 C 1211 353.887, 1210.645 354.898, 1209.845 354.405 C 1209.205 354.009, 1208.960 354.126, 1209.294 354.667 C 1209.626 355.204, 1209.221 356.947, 1208.395 358.540 C 1207.569 360.132, 1207.137 362.411, 1207.437 363.603 C 1207.762 364.901, 1207.364 366.283, 1206.443 367.047 C 1205.213 368.068, 1205.165 368.491, 1206.203 369.162 C 1207.255 369.842, 1207.240 370.168, 1206.122 370.888 C 1201.716 373.728, 1207.007 374, 1266.309 373.985 C 1303.443 373.975, 1327.075 373.598, 1328 373 C 1328.825 372.467, 1329.107 372.024, 1328.628 372.015 C 1328.148 372.007, 1328.293 371.352, 1328.951 370.560 C 1329.608 369.767, 1330.021 368.305, 1329.868 367.310 C 1329.715 366.314, 1330.078 364.600, 1330.674 363.500 C 1331.270 362.400, 1331.618 360.264, 1331.448 358.753 C 1331.277 357.242, 1331.721 355.422, 1332.435 354.708 C 1333.149 353.994, 1334.017 351.630, 1334.363 349.455 C 1335.586 341.782, 1335.865 340.701, 1336.776 340.103 C 1337.283 339.772, 1337.596 338.375, 1337.473 337 C 1337.350 335.625, 1337.602 334.050, 1338.033 333.500 C 1339.382 331.777, 1342.830 321.163, 1342.234 320.567 C 1341.922 320.255, 1342.171 320, 1342.788 320 C 1343.405 320, 1344.188 318.313, 1344.528 316.250 C 1344.869 314.188, 1346.239 309.969, 1347.574 306.875 C 1348.908 303.781, 1350 300.719, 1350 300.070 C 1350 298.970, 1352.345 293.320, 1355.580 286.629 C 1356.343 285.049, 1356.755 283.413, 1356.495 282.992 C 1356.235 282.571, 1356.687 281.675, 1357.500 281 C 1358.313 280.325, 1358.731 279.374, 1358.430 278.887 C 1358.129 278.399, 1358.359 278, 1358.941 278 C 1359.523 278, 1360 277.325, 1360 276.500 C 1360 275.675, 1360.525 275, 1361.167 275 C 1361.808 275, 1362.065 274.732, 1361.738 274.404 C 1361.410 274.077, 1362.010 272.263, 1363.071 270.374 C 1364.132 268.485, 1365 266.053, 1365 264.970 C 1365 263.886, 1365.414 263, 1365.921 263 C 1366.427 263, 1367.133 261.671, 1367.490 260.047 C 1367.846 258.423, 1368.933 256.060, 1369.905 254.797 C 1370.876 253.534, 1372.305 251.037, 1373.080 249.250 C 1373.854 247.463, 1374.855 246, 1375.303 246 C 1375.751 246, 1375.828 245.531, 1375.473 244.957 C 1375.119 244.383, 1376.015 242.358, 1377.465 240.457 C 1378.915 238.556, 1379.823 237, 1379.483 237 C 1379.142 237, 1379.907 235.543, 1381.182 233.763 C 1382.457 231.982, 1384.221 228.945, 1385.102 227.013 C 1385.983 225.081, 1388.346 221.545, 1390.352 219.155 C 1392.359 216.765, 1393.786 214.463, 1393.524 214.039 C 1393.262 213.614, 1393.937 212.462, 1395.024 211.479 C 1396.111 210.495, 1397 209.085, 1397 208.345 C 1397 207.605, 1397.353 207, 1397.784 207 C 1398.216 207, 1399.431 205.538, 1400.484 203.750 C 1401.538 201.963, 1403.210 199.628, 1404.200 198.561 C 1405.190 197.495, 1406 196.033, 1406 195.311 C 1406 194.590, 1406.374 194, 1406.831 194 C 1407.288 194, 1408.301 192.790, 1409.081 191.312 C 1409.861 189.833, 1411.544 187.471, 1412.820 186.062 C 1414.096 184.653, 1415.783 182.787, 1416.570 181.916 C 1417.356 181.045, 1418 179.668, 1418 178.856 C 1418 177.260, 1423.673 171, 1425.119 171 C 1425.603 171, 1426 170.317, 1426 169.482 C 1426 168.648, 1427.556 166.454, 1429.458 164.607 C 1431.360 162.760, 1432.635 160.968, 1432.291 160.624 C 1431.948 160.281, 1432.192 160, 1432.833 160 C 1433.475 160, 1434 159.483, 1434 158.851 C 1434 158.219, 1435.575 156.172, 1437.500 154.303 C 1439.425 152.433, 1441 150.487, 1441 149.977 C 1441 149.468, 1443.700 146.292, 1447 142.919 C 1450.300 139.547, 1453 136.385, 1453 135.894 C 1453 135.402, 1453.702 135, 1454.559 135 C 1455.416 135, 1455.821 134.520, 1455.458 133.933 C 1455.096 133.346, 1455.713 132.626, 1456.830 132.334 C 1460.009 131.503, 1460.334 129.078, 1457.416 127.968 C 1455.882 127.385, 1432.093 127, 1397.588 127 L 1340.307 127 1336.653 130.548 M 77 129.711 C 74.681 130.530, 72.047 134.255, 72.022 136.750 C 72.010 137.988, 71.578 139, 71.062 139 C 70.546 139, 70.121 139.787, 70.117 140.750 C 70.113 141.713, 69.607 144.525, 68.993 147 C 68.379 149.475, 67.629 152.738, 67.325 154.250 C 67.021 155.762, 66.374 157, 65.887 157 C 65.399 157, 65 158.323, 65 159.941 C 65 161.559, 64.648 163.099, 64.219 163.365 C 63.789 163.631, 63.324 165.327, 63.187 167.135 C 63.049 168.942, 62.435 170.731, 61.822 171.110 C 61.210 171.488, 60.951 172.429, 61.246 173.199 C 61.542 173.970, 61.174 175.703, 60.427 177.050 C 59.681 178.398, 59.055 180.512, 59.035 181.750 C 59.016 182.988, 58.550 184, 58 184 C 56.561 184, 56.766 186.739, 58.250 187.338 C 59.004 187.642, 58.813 187.873, 57.769 187.921 C 55.975 188.003, 55.526 189.275, 54.506 197.168 C 54.174 199.736, 53.249 202.378, 52.451 203.041 C 51.653 203.703, 51 205.341, 51 206.680 C 51 210.083, 48.916 218, 48.021 218 C 47.612 218, 47.011 220.261, 46.684 223.024 C 46.356 225.787, 45.735 228.599, 45.302 229.274 C 43.367 232.293, 42.270 236.924, 43.381 237.382 C 44.119 237.685, 44.075 237.869, 43.250 237.921 C 42.563 237.964, 42 239.098, 42 240.441 C 42 241.784, 41.550 243.160, 41 243.500 C 40.450 243.840, 40 245.666, 40 247.559 C 40 249.452, 39.550 251, 39 251 C 38.450 251, 38 251.873, 38 252.941 C 38 254.009, 37.648 255.099, 37.219 255.365 C 36.789 255.631, 36.324 257.345, 36.187 259.174 C 36.049 261.003, 35.526 262.642, 35.024 262.815 C 34.523 262.988, 34.362 263.779, 34.666 264.572 C 34.971 265.366, 34.495 267.121, 33.610 268.473 C 32.724 269.824, 32 272.322, 32 274.024 C 32 276.032, 31.611 276.878, 30.893 276.434 C 30.148 275.973, 30.006 276.445, 30.460 277.875 C 30.876 279.183, 30.702 280, 30.008 280 C 29.389 280, 29.160 280.450, 29.500 281 C 29.840 281.550, 29.641 282, 29.059 282 C 28.477 282, 28 283.773, 28 285.941 C 28 288.109, 27.550 290.160, 27 290.500 C 26.450 290.840, 26 292.216, 26 293.559 C 26 294.902, 25.502 296, 24.893 296 C 24.284 296, 24.054 296.698, 24.382 297.552 C 24.987 299.130, 22.971 307, 21.961 307 C 21.657 307, 21.297 308.666, 21.159 310.702 C 21.022 312.738, 20.397 315.022, 19.769 315.778 C 18.905 316.820, 18.948 317.350, 19.949 317.969 C 20.968 318.598, 20.808 319.032, 19.253 319.865 C 17.347 320.885, 16.700 322.718, 15.323 331 C 15.003 332.925, 14.371 334.739, 13.917 335.031 C 13.463 335.322, 12.979 337.235, 12.842 339.281 C 12.704 341.326, 12.233 343, 11.796 343 C 11.358 343, 11 343.873, 11 344.941 C 11 346.009, 10.609 347.123, 10.132 347.419 C 9.654 347.714, 8.945 350.778, 8.556 354.228 C 8.167 357.677, 7.270 361.175, 6.562 362 C 4.669 364.205, 3.795 370.048, 5.119 371.643 C 6.842 373.720, 298.612 373.660, 301.579 371.583 C 302.692 370.803, 305.263 369.854, 307.292 369.473 C 309.322 369.092, 310.765 368.428, 310.498 367.997 C 310.057 367.283, 312.318 366.444, 317.427 365.430 C 318.486 365.219, 319.814 364.586, 320.377 364.023 C 320.939 363.461, 322.028 363, 322.796 363 C 323.563 363, 325.386 362.156, 326.846 361.124 C 328.306 360.092, 331.975 358.224, 335 356.972 C 338.025 355.721, 341.117 353.865, 341.872 352.848 C 342.627 351.832, 343.844 351, 344.577 351 C 345.309 351, 346.990 349.988, 348.311 348.750 C 349.633 347.512, 351.914 345.600, 353.382 344.500 C 354.849 343.400, 356.682 341.938, 357.454 341.250 C 358.226 340.563, 359.527 340, 360.345 340 C 361.164 340, 361.983 339.586, 362.167 339.079 C 362.350 338.572, 366.100 334.353, 370.500 329.703 C 383.129 316.356, 385 314.149, 385 312.598 C 385 311.798, 385.617 310.526, 386.370 309.773 C 387.124 309.019, 388.487 307.074, 389.398 305.451 C 390.310 303.828, 391.959 300.992, 393.064 299.150 C 394.168 297.307, 394.817 294.998, 394.506 294.018 C 394.153 292.905, 394.557 292, 395.584 291.606 C 396.634 291.203, 397.039 290.259, 396.707 288.988 C 396.421 287.895, 396.503 287, 396.888 287 C 397.818 287, 401 276.570, 401 273.519 C 401 272.199, 401.421 270.858, 401.935 270.540 C 403.124 269.805, 403.292 266.315, 403.406 239.799 C 403.476 223.665, 403.179 217.777, 402.250 216.849 C 401.563 216.162, 401 215.028, 401 214.330 C 401 212.583, 396.208 202.247, 395.074 201.546 C 394.568 201.233, 393.852 199.602, 393.483 197.921 C 393.113 196.240, 392.201 194.630, 391.454 194.344 C 390.708 194.058, 389.590 192.288, 388.971 190.412 C 388.352 188.535, 387.486 187, 387.047 187 C 386.609 187, 385.547 185.549, 384.688 183.776 C 382.887 180.056, 383.887 178, 387.500 178 C 390.877 178, 397 175.166, 397 173.603 C 397 172.470, 398.702 171.467, 402.039 170.635 C 403.134 170.361, 409 163.899, 409 162.966 C 409 162.434, 409.510 162, 410.134 162 C 411.557 162, 415.997 156.917, 415.999 155.285 C 415.999 154.617, 416.900 153.589, 418 153 C 419.296 152.307, 420 150.906, 420 149.024 C 420 147.426, 420.392 145.876, 420.871 145.580 C 422.883 144.336, 424.261 133.695, 422.793 130.739 C 421.963 129.068, 413.192 128.984, 250.209 129.080 C 155.769 129.135, 77.825 129.419, 77 129.711 M 160.402 242.250 C 159.976 244.588, 159.728 247.046, 159.850 247.714 C 159.972 248.382, 159.155 249.845, 158.036 250.964 C 156.430 252.570, 156 254.297, 156 259.140 C 156 263.273, 155.534 265.642, 154.573 266.390 C 153.788 267, 153 268.625, 152.823 270 L 152.500 272.500 194.500 272.778 C 236.211 273.054, 242.856 272.786, 239.948 270.947 C 238.875 270.268, 239.247 270.027, 241.382 270.015 C 245.288 269.995, 251.297 266.216, 250.544 264.254 C 250.226 263.424, 250.663 262.236, 251.516 261.612 C 252.999 260.527, 253.490 256.811, 253.147 249.250 C 253.047 247.032, 252.504 246, 251.437 246 C 250.460 246, 249.992 245.290, 250.187 244.108 C 250.359 243.067, 249.643 241.267, 248.595 240.108 C 246.714 238.027, 246.150 238, 203.933 238 L 161.176 238 160.402 242.250"
     stroke="none"
     fill="#b3b3b3"
     fill-rule="evenodd"
     id="path4"
     style="fill:#ffffff;fill-opacity:1" />
</svg>
